<svg xmlns="http://www.w3.org/2000/svg" id="a9f4e35f-fabb-46b1-abf3-f67cbf881ce0" width="728.346" height="523.591" data-name="Layer 1" viewBox="0 0 728.346 523.591"><path fill="#3f3d56" d="M947.17323,711.20472h-437a17.01916,17.01916,0,0,1-17-17v-489a17.01917,17.01917,0,0,1,17-17h437a17.01917,17.01917,0,0,1,17,17v489A17.01916,17.01916,0,0,1,947.17323,711.20472Zm-437-521a15.017,15.017,0,0,0-15,15v489a15.017,15.017,0,0,0,15,15h437a15.017,15.017,0,0,0,15-15v-489a15.017,15.017,0,0,0-15-15Z" transform="translate(-235.82677 -188.20472)"/><rect width="469" height="2" x="258.346" y="41.59" fill="#3f3d56"/><circle cx="281.346" cy="22" r="8" fill="#6c63ff"/><circle cx="306.346" cy="22" r="8" fill="#6c63ff"/><circle cx="331.346" cy="22" r="8" fill="#6c63ff"/><path fill="#3f3d56" d="M884.67323,303.20472h-312a13,13,0,0,1,0-26h312a13,13,0,0,1,0,26Zm-312-24a11,11,0,0,0,0,22h312a11,11,0,0,0,0-22Z" transform="translate(-235.82677 -188.20472)"/><path fill="#ccc" d="M807.52756,405.79528h-142a8,8,0,0,1,0-16h142a8,8,0,0,1,0,16Z" transform="translate(-235.82677 -188.20472)"/><path fill="#ccc" d="M889.52756,432.79528h-224a8,8,0,0,1,0-16h224a8,8,0,0,1,0,16Z" transform="translate(-235.82677 -188.20472)"/><path fill="#ccc" d="M612.3189,434.29528h-43a9.51081,9.51081,0,0,1-9.5-9.5v-27a9.5108,9.5108,0,0,1,9.5-9.5h43a9.5108,9.5108,0,0,1,9.5,9.5v27A9.51081,9.51081,0,0,1,612.3189,434.29528Zm-43-44a7.50835,7.50835,0,0,0-7.5,7.5v27a7.50836,7.50836,0,0,0,7.5,7.5h43a7.50836,7.50836,0,0,0,7.5-7.5v-27a7.50835,7.50835,0,0,0-7.5-7.5Z" transform="translate(-235.82677 -188.20472)"/><path fill="#ccc" d="M807.52756,500.79528h-142a8,8,0,0,1,0-16h142a8,8,0,0,1,0,16Z" transform="translate(-235.82677 -188.20472)"/><path fill="#ccc" d="M889.52756,527.79528h-224a8,8,0,1,1,0-16h224a8,8,0,0,1,0,16Z" transform="translate(-235.82677 -188.20472)"/><path fill="#ccc" d="M612.3189,529.29528h-43a9.51081,9.51081,0,0,1-9.5-9.5v-27a9.5108,9.5108,0,0,1,9.5-9.5h43a9.5108,9.5108,0,0,1,9.5,9.5v27A9.51081,9.51081,0,0,1,612.3189,529.29528Zm-43-44a7.50835,7.50835,0,0,0-7.5,7.5v27a7.50836,7.50836,0,0,0,7.5,7.5h43a7.50836,7.50836,0,0,0,7.5-7.5v-27a7.50835,7.50835,0,0,0-7.5-7.5Z" transform="translate(-235.82677 -188.20472)"/><path fill="#f2f2f2" d="M807.52756,595.79528h-142a8,8,0,0,1,0-16h142a8,8,0,0,1,0,16Z" transform="translate(-235.82677 -188.20472)"/><path fill="#f2f2f2" d="M889.52756,622.79528h-224a8,8,0,0,1,0-16h224a8,8,0,0,1,0,16Z" transform="translate(-235.82677 -188.20472)"/><path fill="#f2f2f2" d="M612.3189,624.29528h-43a9.51081,9.51081,0,0,1-9.5-9.5v-27a9.5108,9.5108,0,0,1,9.5-9.5h43a9.5108,9.5108,0,0,1,9.5,9.5v27A9.51081,9.51081,0,0,1,612.3189,624.29528Z" transform="translate(-235.82677 -188.20472)"/><path fill="#6c63ff" d="M590.8189,426.03362l-2.31545-2.08878c-8.22262-7.54934-13.65109-12.44922-13.65109-18.553a8.68327,8.68327,0,0,1,8.78159-8.83494,9.44539,9.44539,0,0,1,7.18495,3.37347,9.445,9.445,0,0,1,7.18494-3.37347,8.68328,8.68328,0,0,1,8.78159,8.83494c0,6.10382-5.42854,11.00371-13.65108,18.553Z" transform="translate(-235.82677 -188.20472)"/><path fill="#6c63ff" d="M590.8189,521.03362l-2.31545-2.08878c-8.22262-7.54934-13.65109-12.44922-13.65109-18.553a8.68327,8.68327,0,0,1,8.78159-8.83494,9.44539,9.44539,0,0,1,7.18495,3.37347,9.445,9.445,0,0,1,7.18494-3.37347,8.68328,8.68328,0,0,1,8.78159,8.83494c0,6.10382-5.42854,11.00371-13.65108,18.553Z" transform="translate(-235.82677 -188.20472)"/></svg>